<?xml version="1.0" encoding="UTF-8"?>
<svg id="Capa_1" data-name="Capa 1" xmlns="http://www.w3.org/2000/svg" viewBox="0 0 455.24 587.15">
  <defs>
    <style>
      .cls-1 {
        fill: #ebebff;
      }

      .cls-2 {
        fill: #fff;
        stroke: #cbcdff;
      }

      .cls-3 {
        fill: #6070ff;
      }

      .cls-4 {
        fill: #cbcdff;
      }
    </style>
  </defs>
  <rect class="cls-3" x="170.38" y="41.2" width="4.73" height="26.46" transform="translate(18.72 149.73) rotate(-49.23)"/>
  <ellipse class="cls-4" cx="166.3" cy="59.21" rx="5" ry="5.5" transform="translate(-2.12 112.09) rotate(-37.03)"/>
  <rect class="cls-1" x="248.57" y="534.04" width="12.18" height="68.06" transform="translate(-367.82 576.83) rotate(-66.66)"/>
  <circle class="cls-3" cx="281" cy="563.1" r="10"/>
  <path class="cls-1" d="m368.91,465.5c1.52-1.81,2.59-3.95,3.13-6.25.54-2.3.53-4.7-.04-6.99-.56-2.3-1.65-4.43-3.19-6.22-1.54-1.8-3.48-3.2-5.66-4.11-2.18-.91-4.55-1.29-6.9-1.11-2.36.18-4.64.91-6.66,2.13-2.02,1.22-3.73,2.91-4.98,4.91-1.25,2.01-2.01,4.28-2.22,6.63l6.45.57c.12-1.34.55-2.63,1.26-3.78.71-1.14,1.68-2.1,2.84-2.8,1.15-.7,2.45-1.11,3.79-1.21,1.34-.1,2.69.11,3.93.63,1.24.52,2.35,1.32,3.22,2.34.88,1.02,1.5,2.24,1.82,3.55.32,1.31.33,2.67.02,3.98-.31,1.31-.92,2.53-1.78,3.56l4.96,4.16Z"/>
  <path class="cls-3" d="m352.5,429c-.22,3.19.84,6.34,2.94,8.76,2.1,2.41,5.08,3.89,8.27,4.11,3.19.22,6.34-.84,8.76-2.94,2.41-2.1,3.89-5.08,4.11-8.27l-24.09-1.65Z"/>
  <rect class="cls-1" x="-4.63" y="17.32" width="51.99" height="9.3" transform="translate(-9.28 22.15) rotate(-46.14)"/>
  <path class="cls-3" d="m22.19,24.64c-2,4.7-2.06,10-.16,14.73,1.9,4.74,5.61,8.53,10.31,10.53,4.7,2,10,2.06,14.73.16,4.74-1.9,8.53-5.61,10.53-10.31l-35.41-15.12Z"/>
  <circle class="cls-2" cx="255.5" cy="13.5" r="7"/>
  <circle class="cls-2" cx="337.5" cy="216.5" r="5"/>
  <circle class="cls-2" cx="94.5" cy="548.5" r="7"/>
  <path class="cls-3" d="m455.24,74.97c-4.05-7.18-9.73-13.31-16.58-17.89-6.86-4.58-14.69-7.48-22.88-8.46-8.19-.99-16.49-.03-24.23,2.79-7.75,2.82-14.72,7.42-20.36,13.44-5.64,6.02-9.78,13.27-12.09,21.19-2.31,7.91-2.72,16.26-1.21,24.36,1.52,8.1,4.92,15.74,9.93,22.28,5.01,6.54,11.5,11.82,18.93,15.39l9.79-20.36c-4.23-2.03-7.93-5.04-10.78-8.76-2.86-3.73-4.8-8.08-5.66-12.69-.86-4.62-.63-9.37.69-13.88s3.67-8.64,6.89-12.07c3.21-3.43,7.18-6.05,11.6-7.66,4.41-1.61,9.14-2.15,13.81-1.59,4.66.56,9.13,2.21,13.03,4.82,3.9,2.61,7.14,6.1,9.45,10.19l19.68-11.09Z"/>
  <rect class="cls-1" x="327.1" y="36.42" width="95.58" height="22.02" transform="translate(26.51 193.8) rotate(-30)"/>
</svg>