<?xml version="1.0" encoding="UTF-8"?>
<svg id="Capa_1" data-name="Capa 1" xmlns="http://www.w3.org/2000/svg" viewBox="0 0 19.93 20.06">
  <defs>
    <style>
      .cls-1 {
        fill: #505f79;
      }
    </style>
  </defs>
  <path class="cls-1" d="m13.57,3.09c-3.49,0-6.36,2.83-6.36,6.34v9.93c0,.38.31.69.69.69h3.59c.38,0,.69-.31.69-.69v-9.66c0-.76.62-1.38,1.38-1.38s1.38.62,1.38,1.38v9.66c0,.38.31.69.69.69h3.59c.38,0,.69-.31.69-.69v-9.93c0-3.48-2.83-6.34-6.36-6.34Z"/>
  <path class="cls-1" d="m4.28,6.34H.69c-.38,0-.69.31-.69.69v12.34c0,.38.31.69.69.69h3.59c.38,0,.69-.31.69-.69V7.03c0-.38-.31-.69-.69-.69Z"/>
  <path class="cls-1" d="m2.49,0C1.11,0,0,1.1,0,2.48s1.11,2.48,2.49,2.48,2.49-1.1,2.49-2.48S3.87,0,2.49,0Z"/>
</svg>